HIERARCHY
ROOT SpineBase
{
  OFFSET 0.000000 0.000000 0.000000
  CHANNELS 6 Xposition Yposition Zposition Zrotation Xrotation Yrotation
  JOINT SpineMid
  {
    OFFSET -0.000000 33.535715 0.000000
    CHANNELS 3 Zrotation Xrotation Yrotation
    JOINT SpineShoulder
    {
      OFFSET 0.142655 24.770874 -1.043514
      CHANNELS 3 Zrotation Xrotation Yrotation
      JOINT Neck
      {
        OFFSET 0.123713 8.169947 -0.741352
        CHANNELS 3 Zrotation Xrotation Yrotation
        JOINT Head
        {
          OFFSET 5.425979 12.841053 6.658366
          CHANNELS 3 Zrotation Xrotation Yrotation
          End Site
          {
            OFFSET 0 0 0
          }
        }
      }
      JOINT ShoulderLeft
      {
        OFFSET -10.358118 -2.200439 -12.795068
        CHANNELS 3 Zrotation Xrotation Yrotation
        JOINT ElbowLeft
        {
          OFFSET -8.311860 -26.816660 -8.797838
          CHANNELS 3 Zrotation Xrotation Yrotation
          JOINT WristLeft
          {
            OFFSET 1.799789 -24.734924 -6.939882
            CHANNELS 3 Zrotation Xrotation Yrotation
            JOINT HandLeft
            {
              OFFSET 0.884284 -4.719303 3.363597
              CHANNELS 3 Zrotation Xrotation Yrotation
              JOINT HandTipLeft
              {
                OFFSET 1.408234 -4.488446 1.235521
                CHANNELS 3 Zrotation Xrotation Yrotation
                End Site
                {
                  OFFSET 0 0 0
                }
              }
              JOINT ThumbLeft
              {
                OFFSET -3.108474 -0.900720 -5.433178
                CHANNELS 3 Zrotation Xrotation Yrotation
                End Site
                {
                  OFFSET 0 0 0
                }
              }
            }
          }
        }
      }
      JOINT ShoulderRight
      {
        OFFSET 11.344277 -6.486537 10.135812
        CHANNELS 3 Zrotation Xrotation Yrotation
        JOINT ElbowRight
        {
          OFFSET 1.687259 -30.470805 8.328100
          CHANNELS 3 Zrotation Xrotation Yrotation
          JOINT WristRight
          {
            OFFSET -0.614531 -25.312896 -2.557337
            CHANNELS 3 Zrotation Xrotation Yrotation
            JOINT HandRight
            {
              OFFSET -0.435889 -3.051971 1.178727
              CHANNELS 3 Zrotation Xrotation Yrotation
              JOINT HandTipRight
              {
                OFFSET 0.671241 -5.325703 -0.986025
                CHANNELS 3 Zrotation Xrotation Yrotation
                End Site
                {
                  OFFSET 0 0 0
                }
              }
              JOINT ThumbRight
              {
                OFFSET 2.519080 -1.823742 -2.536963
                CHANNELS 3 Zrotation Xrotation Yrotation
                End Site
                {
                  OFFSET 0 0 0
                }
              }
            }
          }
        }
      }
    }
  }
  JOINT HipLeft
  {
    OFFSET -4.884308 1.641519 -8.505639
    CHANNELS 3 Zrotation Xrotation Yrotation
    JOINT KneeLeft
    {
      OFFSET -13.601159 -30.860523 -12.516186
      CHANNELS 3 Zrotation Xrotation Yrotation
      JOINT AnkleLeft
      {
        OFFSET -9.348161 -37.407519 0.280865
        CHANNELS 3 Zrotation Xrotation Yrotation
        JOINT FootLeft
        {
          OFFSET 8.228519 -4.680170 -11.631552
          CHANNELS 3 Zrotation Xrotation Yrotation
          End Site
          {
            OFFSET 0 0 0
          }
        }
      }
    }
  }
  JOINT HipRight
  {
    OFFSET 6.022884 0.272708 -0.063490
    CHANNELS 3 Zrotation Xrotation Yrotation
    JOINT KneeRight
    {
      OFFSET -8.930283 -32.546959 1.711063
      CHANNELS 3 Zrotation Xrotation Yrotation
      JOINT AnkleRight
      {
        OFFSET -11.500828 -35.059448 6.817616
        CHANNELS 3 Zrotation Xrotation Yrotation
        JOINT FootRight
        {
          OFFSET -0.849291 -9.872576 -5.137269
          CHANNELS 3 Zrotation Xrotation Yrotation
          End Site
          {
            OFFSET 0 0 0
          }
        }
      }
    }
  }
}
MOTION
Frames: 14
Frame Time: 0.033333
-45.529990 78.484044 348.049043 0.000000 0.000000 -37.739813 -0.000000 0.000000 37.739813 -0.000000 0.000000 0.000000 -0.000000 0.000000 0.000000 0.000000 0.000000 0.000000 -0.000000 0.000000 0.000000 -0.000000 0.000000 0.000000 -0.000000 0.000000 0.000000 -0.000000 0.000000 0.000000 0.000000 0.000000 0.000000 0.000000 0.000000 0.000000 -0.000000 0.000000 0.000000 -0.000000 0.000000 0.000000 -0.000000 0.000000 0.000000 -0.000000 0.000000 0.000000 0.000000 0.000000 0.000000 0.000000 0.000000 0.000000 -0.000000 0.000000 37.739813 -0.000000 0.000000 0.000000 -0.000000 0.000000 0.000000 0.000000 0.000000 0.000000 -0.000000 0.000000 37.739813 -0.000000 0.000000 0.000000 -0.000000 0.000000 0.000000 0.000000 0.000000 0.000000
-45.593909 78.546961 347.885221 -0.045140 -0.057206 -37.611567 0.000845 0.072866 37.611544 -0.000000 0.000000 0.000000 -0.000000 0.000000 0.000000 0.000000 0.000000 0.000000 -0.000000 0.000000 0.000000 -0.000000 0.000000 0.000000 0.974599 -1.540921 0.414368 -6.450567 8.873843 0.922242 0.000000 0.000000 0.000000 0.000000 0.000000 0.000000 -0.000000 0.000000 0.000000 -0.000000 0.000000 0.000000 0.260888 3.917856 -0.474355 0.476314 -2.714909 0.517256 0.000000 0.000000 0.000000 0.000000 0.000000 0.000000 0.000845 0.072866 37.611544 -0.000000 0.000000 0.000000 2.073217 1.371323 -2.605894 0.000000 0.000000 0.000000 0.000845 0.072866 37.611544 -0.000000 0.000000 0.000000 11.840045 10.590478 -7.875538 0.000000 0.000000 0.000000
-45.656685 78.601235 347.739923 -0.087864 -0.110778 -37.464714 0.002357 0.141372 37.464627 -0.000000 0.000000 0.000000 -0.000000 0.000000 0.000000 0.000000 0.000000 0.000000 -0.000000 0.000000 0.000000 -0.000000 0.000000 0.000000 1.706518 -2.626566 0.748925 -10.912690 14.517631 1.992869 0.000000 0.000000 0.000000 0.000000 0.000000 0.000000 -0.000000 0.000000 0.000000 -0.000000 0.000000 0.000000 0.572950 7.268524 -0.876721 0.623049 -5.024192 1.002028 0.000000 0.000000 0.000000 0.000000 0.000000 0.000000 0.002357 0.141372 37.464627 -0.000000 0.000000 0.000000 3.119272 2.006307 -3.921034 0.000000 0.000000 0.000000 0.002357 0.141372 37.464627 -0.000000 0.000000 0.000000 22.649926 17.640503 -15.912401 0.000000 0.000000 0.000000
-45.718320 78.646868 347.613148 -0.128146 -0.160679 -37.299091 0.004571 0.205471 37.298903 -0.000000 0.000000 0.000000 -0.000000 0.000000 0.000000 0.000000 0.000000 0.000000 -0.000000 0.000000 0.000000 -0.371312 -1.073183 0.022676 2.605605 -2.270710 0.937680 -14.181590 18.210053 2.930240 0.000000 0.000000 0.000000 0.000000 0.000000 0.000000 -0.000000 0.000000 0.000000 -0.000000 0.000000 0.000000 0.918128 9.881323 -1.180258 0.452657 -6.744155 1.374687 0.000000 0.000000 0.000000 0.000000 0.000000 0.000000 0.004571 0.205471 37.298903 -0.000000 0.000000 0.000000 3.263619 2.079448 -4.121740 0.000000 0.000000 0.000000 0.004571 0.205471 37.298903 -0.000000 0.000000 0.000000 31.097491 21.611348 -22.541309 0.000000 0.000000 0.000000
-45.778812 78.683859 347.504897 -0.165962 -0.206877 -37.114544 0.007512 0.265113 37.114227 -0.000000 0.000000 0.000000 -0.000000 0.000000 0.000000 0.000000 0.000000 0.000000 -0.000000 0.000000 0.000000 -0.468965 -1.375570 0.025948 3.061185 -2.371696 1.101865 -16.659955 20.632803 3.670102 0.000000 0.000000 0.000000 0.000000 0.000000 0.000000 -0.000000 0.000000 0.000000 -0.000000 0.000000 0.000000 1.276869 11.604720 -1.354960 -0.030965 -7.710227 1.580387 0.000000 0.000000 0.000000 0.000000 0.000000 0.000000 0.007512 0.265113 37.114227 -0.000000 0.000000 0.000000 2.525292 1.613718 -3.235716 0.000000 0.000000 0.000000 0.839211 -0.034182 37.341298 -0.479709 0.742421 -0.225638 37.030819 23.687131 -27.318075 0.000000 0.000000 0.000000
-45.838162 78.712209 347.415170 -0.201287 -0.249343 -36.910936 0.011196 0.320255 36.910467 -0.000000 0.000000 0.000000 0.669824 -0.487261 -0.139232 0.000000 0.000000 0.000000 -0.002262 -0.888368 0.276783 -0.554782 -0.759175 -0.240867 3.353174 -2.225026 1.207128 -18.574264 22.161709 4.204812 0.000000 0.000000 0.000000 0.000000 0.000000 0.000000 -0.000000 0.000000 0.000000 -0.000000 0.000000 0.000000 1.631652 12.303197 -1.369329 -0.824514 -7.771827 1.595266 0.000000 0.000000 0.000000 0.000000 0.000000 0.000000 0.011196 0.320255 36.910467 -0.000000 0.000000 0.000000 0.817937 0.491117 -1.146241 0.000000 0.000000 0.000000 0.987285 -0.013757 37.172729 -0.575975 0.855910 -0.260571 40.821188 24.728062 -30.406545 0.000000 0.000000 0.000000
-45.891612 78.732703 347.347542 -0.219430 -0.280633 -36.669354 0.008412 0.356137 36.668791 -0.000000 0.000000 0.000000 0.698625 -0.445814 -0.171949 0.000000 0.000000 0.000000 0.010172 -1.016065 0.312609 -0.658435 -0.900149 -0.270775 3.178792 -1.388334 1.097528 -20.259986 22.896606 4.699777 0.000000 0.000000 0.000000 0.000000 0.000000 0.000000 -0.000000 0.000000 0.000000 -0.000000 0.000000 0.000000 1.233638 12.832815 -1.573439 -1.973731 -9.318159 1.753341 0.000000 0.000000 0.000000 0.000000 0.000000 0.000000 0.008412 0.356137 36.668791 -0.000000 0.000000 0.000000 -2.678668 -2.052242 3.282099 0.000000 0.000000 0.000000 1.086800 0.004701 36.954214 -0.650515 0.929128 -0.283545 42.403043 25.075932 -31.695222 0.000000 0.000000 0.000000
-45.947414 78.725377 347.291418 -0.248960 -0.318129 -36.281758 0.012439 0.403772 36.281023 -0.000000 0.000000 0.000000 0.702383 -0.394531 -0.195935 0.000000 0.000000 0.000000 -0.026817 -1.144909 0.364575 -0.678625 -1.000318 -0.324309 3.094477 -0.666125 1.073000 -21.610518 23.338054 4.968131 0.000000 0.000000 0.000000 0.000000 0.000000 0.000000 -0.000000 0.000000 0.000000 -0.000000 0.000000 0.000000 1.632535 9.111338 -0.830824 -2.568838 -4.597394 1.207371 0.000000 0.000000 0.000000 0.000000 0.000000 0.000000 0.012439 0.403772 36.281023 -0.000000 0.000000 0.000000 -9.631778 -8.559337 12.259809 0.000000 0.000000 0.000000 1.195329 0.018113 36.592567 -0.719877 1.014775 -0.309523 41.943007 24.940920 -31.309193 0.000000 0.000000 0.000000
-46.016186 78.734553 347.242338 -0.298280 -0.340854 -35.994697 0.041011 0.451076 35.993648 -0.000000 0.000000 0.000000 -0.000000 0.000000 0.000000 0.000000 0.000000 0.000000 -0.055461 -1.236488 0.402225 -0.666952 -1.059321 -0.368961 2.969948 -0.040994 1.056794 -21.109268 22.720128 4.711627 0.000000 0.000000 0.000000 0.000000 0.000000 0.000000 -0.000000 0.000000 0.000000 -0.000000 0.000000 0.000000 2.410272 6.254069 -0.097115 -5.143882 2.702734 1.372656 0.000000 0.000000 0.000000 0.000000 0.000000 0.000000 0.041011 0.451076 35.993648 -0.000000 0.000000 0.000000 -14.508881 -14.478031 18.953294 0.000000 0.000000 0.000000 1.326675 0.069206 36.323281 -0.809687 1.069206 -0.327915 38.530866 24.072805 -28.523061 0.000000 0.000000 0.000000
-46.087087 78.729157 347.217596 -0.365273 -0.368782 -35.604605 0.082294 0.512494 35.603061 -0.000000 0.000000 0.000000 0.758624 -0.498165 -0.180482 0.000000 0.000000 0.000000 -0.048322 -1.329047 0.428825 -0.736915 -1.131918 -0.389954 3.273555 0.348897 1.243996 -22.250361 22.547436 4.343310 0.000000 0.000000 0.000000 0.000000 0.000000 0.000000 -0.000000 0.000000 0.000000 -0.000000 0.000000 0.000000 2.887856 0.292179 1.071365 -5.932155 9.142301 0.902201 0.000000 0.000000 0.000000 0.000000 0.000000 0.000000 0.082294 0.512494 35.603061 -0.000000 0.000000 0.000000 -16.885158 -17.871196 22.445525 0.000000 0.000000 0.000000 1.455386 0.145990 35.944317 -0.896530 1.102711 -0.340519 38.889789 24.262454 -28.840250 0.000000 0.000000 0.000000
-46.151669 78.709620 347.264184 -0.406668 -0.427961 -35.310823 0.084496 0.584283 35.308874 -0.000000 0.000000 0.000000 0.699950 -0.631271 -0.092847 0.000000 0.000000 0.000000 -0.075175 -1.407728 0.461854 -0.718432 -1.187214 -0.431328 3.443131 0.550304 1.365180 -22.697485 21.515097 3.592387 0.000000 0.000000 0.000000 0.000000 0.000000 0.000000 -0.000000 0.000000 0.000000 -0.000000 0.000000 0.000000 2.966575 -2.771538 1.604533 -6.967751 13.959119 1.295416 0.000000 0.000000 0.000000 0.000000 0.000000 0.000000 0.084496 0.584283 35.308874 -0.000000 0.000000 0.000000 -16.921813 -17.906992 22.579807 0.000000 0.000000 0.000000 1.458876 0.297843 35.631240 -0.950186 1.033488 -0.324377 42.834288 25.482441 -32.140662 0.000000 0.000000 0.000000
-46.205080 78.687173 347.387515 -0.429491 -0.545396 -35.057497 0.038310 0.693142 35.055221 -0.000000 0.000000 0.000000 0.595030 -0.749355 0.012064 0.000000 0.000000 0.000000 -0.130829 -1.451994 0.493208 -0.681456 -1.254968 -0.467595 3.653923 0.794708 1.513730 -21.580696 21.213042 3.340098 0.000000 0.000000 0.000000 0.000000 0.000000 0.000000 -0.000000 0.000000 0.000000 0.273672 0.831856 -0.049798 2.444383 -4.449990 1.721401 -8.739851 18.157042 2.642442 0.000000 0.000000 0.000000 0.000000 0.000000 0.000000 0.035482 1.491279 34.581883 -0.450701 -0.658717 0.470800 -14.633760 -14.582165 19.338619 0.000000 0.000000 0.000000 1.349117 0.546713 35.333036 -0.984587 0.877564 -0.284458 43.966346 25.757154 -33.083335 0.000000 0.000000 0.000000
-46.267817 78.654620 347.522286 -0.436594 -0.674522 -34.830065 -0.026857 0.803034 34.827683 -0.000000 0.000000 0.000000 0.429688 -0.794925 0.116682 0.000000 0.000000 0.000000 -0.200587 -1.489723 0.526925 -0.640543 -1.296573 -0.501206 3.734791 0.703251 1.513398 -21.124252 21.341911 3.418985 0.000000 0.000000 0.000000 0.000000 0.000000 0.000000 0.318430 -0.764731 0.046718 -0.085337 1.817052 -0.096614 1.547384 -5.759886 1.490308 -8.389021 22.356706 3.738638 0.000000 0.000000 0.000000 0.000000 0.000000 0.000000 -0.088339 1.774304 34.258261 -0.495973 -0.837359 0.567181 -9.855117 -8.686362 12.833799 0.000000 0.000000 0.000000 1.234700 0.785628 35.066213 -1.022415 0.739086 -0.249425 42.893230 26.037769 -32.348507 0.000000 0.000000 0.000000
-46.330634 78.597225 347.669769 -0.427074 -0.809962 -34.591781 -0.108250 0.909231 34.589621 -0.000000 0.000000 0.000000 0.232794 -0.785108 0.213580 0.000000 0.000000 0.000000 -0.278089 -1.526177 0.562629 -0.599206 -1.317707 -0.533246 3.921891 1.265774 1.689194 -20.827623 21.232015 3.219651 0.000000 0.000000 0.000000 0.000000 0.000000 0.000000 0.293179 -1.471008 0.002427 -0.145480 2.938104 -0.051059 1.377118 -6.914354 1.500554 -10.224471 22.627906 4.623158 0.000000 0.000000 0.000000 0.000000 0.000000 0.000000 -0.217765 2.065332 33.916913 -0.554274 -1.020474 0.670614 -3.010968 -2.050443 4.205150 0.000000 0.000000 0.000000 1.072479 1.002260 34.787112 -1.022580 0.597291 -0.211856 41.014101 26.068959 -30.933523 0.000000 0.000000 0.000000
